<svg xmlns="http://www.w3.org/2000/svg" width="375" viewBox="0 0 375 375" height="375" version="1.0"><defs><clipPath id="a"><path d="M 71.125 108.8125 L 303.625 108.8125 L 303.625 341.3125 L 71.125 341.3125 Z M 71.125 108.8125"/></clipPath></defs><g clip-path="url(#a)"><path fill="#FF5757" d="M 187.375 341.3125 C 123.171875 341.3125 71.125 289.265625 71.125 225.0625 C 71.125 160.859375 123.171875 108.8125 187.375 108.8125 C 251.578125 108.8125 303.625 160.859375 303.625 225.0625 C 303.625 289.265625 251.578125 341.3125 187.375 341.3125 Z M 187.375 341.3125"/></g><path fill="#F3EED9" d="M 278.253906 231.136719 C 278.253906 269.058594 237.398438 299.800781 186.996094 299.800781 C 136.59375 299.800781 95.742188 269.058594 95.742188 231.136719 C 95.742188 213.355469 104.722656 197.152344 119.460938 184.957031 C 114.167969 173.75 118.589844 155.792969 121.976562 152.726562 C 125.449219 149.585938 145.113281 154.320312 154.230469 167.039062 C 164.402344 164.09375 175.449219 162.472656 186.996094 162.472656 C 198.714844 162.472656 209.917969 164.136719 220.21875 167.167969 C 229.292969 154.347656 249.074219 149.578125 252.5625 152.726562 C 255.984375 155.824219 260.460938 174.109375 254.925781 185.292969 C 269.429688 197.445312 278.253906 213.511719 278.253906 231.136719 Z M 278.253906 231.136719"/><path fill="#F3EED9" d="M 187.882812 162.488281 C 199.28125 162.570312 210.183594 164.214844 220.21875 167.167969 C 229.292969 154.347656 249.074219 149.578125 252.5625 152.726562 C 255.984375 155.824219 260.460938 174.109375 254.925781 185.292969 C 269.425781 197.449219 278.253906 213.519531 278.253906 231.140625 C 278.253906 268.839844 237.878906 299.4375 187.882812 299.796875 Z M 187.882812 162.488281"/><path fill="#FF5757" d="M 158.269531 165.949219 C 163.4375 164.660156 168.8125 163.707031 174.34375 163.125 C 173.640625 169.195312 171.320312 184.5625 165.933594 184.5625 C 161.253906 184.5625 159.128906 172.976562 158.269531 165.949219 Z M 178.5625 162.765625 C 179.460938 170.953125 181.984375 186.9375 188.027344 186.9375 C 194.015625 186.9375 196.871094 171.238281 197.960938 162.988281 C 194.363281 162.660156 190.707031 162.476562 186.996094 162.476562 C 184.152344 162.472656 181.339844 162.570312 178.5625 162.765625 Z M 202.308594 163.453125 C 202.945312 169.808594 204.980469 184.417969 210.230469 184.417969 C 214.734375 184.417969 217.089844 173.671875 218.160156 166.601562 C 213.070312 165.207031 207.773438 164.148438 202.308594 163.453125 Z M 202.308594 163.453125"/><path fill="#FF5757" d="M 258.667969 184.417969 C 263.207031 172.179688 259.019531 154.382812 254.640625 150.421875 C 252.996094 148.9375 250.214844 148.398438 246.367188 148.824219 C 239.390625 149.59375 226.773438 154.15625 219.039062 163.605469 C 208.777344 160.796875 198.011719 159.371094 187 159.371094 C 176.15625 159.371094 165.539062 160.757812 155.410156 163.488281 C 147.628906 154.078125 135.046875 149.570312 128.105469 148.820312 C 124.292969 148.414062 121.53125 148.949219 119.902344 150.425781 C 116.996094 153.054688 115.121094 160.113281 114.394531 165.363281 C 113.8125 169.558594 113.300781 177.203125 115.742188 184.054688 C 100.820312 197.105469 92.640625 213.742188 92.640625 231.140625 C 92.640625 270.714844 134.96875 302.910156 186.996094 302.910156 C 239.027344 302.910156 281.351562 270.714844 281.351562 231.140625 C 281.355469 213.921875 273.316406 197.414062 258.667969 184.417969 Z M 186.996094 296.699219 C 138.386719 296.699219 98.835938 267.289062 98.835938 231.136719 C 98.835938 214.957031 106.863281 199.402344 121.433594 187.34375 L 123.289062 185.808594 L 122.265625 183.632812 C 117.429688 173.390625 121.867188 157.3125 123.984375 155.097656 C 126.820312 153.800781 143.488281 157.367188 151.707031 168.84375 L 152.984375 170.628906 L 155.089844 170.019531 C 165.265625 167.070312 176 165.574219 186.996094 165.574219 C 198.15625 165.574219 209.042969 167.113281 219.339844 170.144531 L 221.46875 170.765625 L 222.746094 168.960938 C 230.945312 157.382812 247.695312 153.789062 250.550781 155.097656 C 252.734375 157.359375 257.21875 173.664062 252.148438 183.910156 L 251.066406 186.097656 L 252.933594 187.664062 C 267.261719 199.679688 275.152344 215.113281 275.152344 231.136719 C 275.152344 267.289062 235.605469 296.699219 186.996094 296.699219 Z M 181.34375 226.082031 C 180.3125 224.921875 180.835938 223.070312 182.328125 222.652344 C 184.9375 221.914062 188.910156 221.292969 192.886719 222.574219 C 194.292969 223.027344 194.839844 224.726562 193.933594 225.894531 L 189.542969 231.542969 C 188.730469 232.582031 187.171875 232.636719 186.296875 231.648438 Z M 158.644531 214.746094 C 158.644531 217.191406 156.660156 219.175781 154.214844 219.175781 C 151.769531 219.175781 149.785156 217.191406 149.785156 214.746094 C 149.785156 212.300781 151.769531 210.316406 154.214844 210.316406 C 156.660156 210.316406 158.644531 212.300781 158.644531 214.746094 Z M 221.550781 214.746094 C 221.550781 217.191406 219.566406 219.175781 217.121094 219.175781 C 214.675781 219.175781 212.691406 217.191406 212.691406 214.746094 C 212.691406 212.300781 214.675781 210.316406 217.121094 210.316406 C 219.566406 210.316406 221.550781 212.300781 221.550781 214.746094 Z M 218.046875 244.957031 C 219.21875 246.203125 219.167969 248.164062 217.921875 249.34375 C 213.054688 253.941406 208.015625 256.261719 202.921875 256.261719 C 202.25 256.261719 201.582031 256.222656 200.914062 256.140625 C 195.421875 255.484375 191.21875 252.242188 188.636719 249.621094 C 185.859375 253.546875 182.382812 255.949219 178.265625 256.773438 C 177.207031 256.984375 176.152344 257.078125 175.117188 257.078125 C 166.847656 257.078125 159.636719 251.074219 159.300781 250.785156 C 157.992188 249.679688 157.832031 247.722656 158.9375 246.414062 C 160.042969 245.109375 161.996094 244.945312 163.304688 246.042969 C 163.402344 246.125 170.535156 252.011719 177.074219 250.683594 C 180.125 250.066406 182.714844 247.851562 184.785156 244.097656 L 184.785156 236.898438 C 184.785156 235.1875 186.175781 233.796875 187.886719 233.796875 C 189.597656 233.796875 190.988281 235.1875 190.988281 236.898438 L 190.988281 242.824219 C 191.546875 243.617188 195.710938 249.289062 201.6875 249.984375 C 205.535156 250.429688 209.574219 248.699219 213.667969 244.832031 C 214.910156 243.652344 216.871094 243.710938 218.046875 244.957031 Z M 131.484375 222.347656 C 131.066406 223.675781 129.84375 224.523438 128.527344 224.523438 C 128.21875 224.523438 127.90625 224.480469 127.601562 224.382812 L 117.789062 221.3125 C 116.152344 220.800781 115.242188 219.066406 115.75 217.429688 C 116.261719 215.796875 118 214.882812 119.632812 215.390625 L 129.445312 218.460938 C 131.082031 218.972656 131.992188 220.714844 131.484375 222.347656 Z M 131.484375 242.582031 C 131.992188 244.21875 131.082031 245.957031 129.445312 246.464844 L 119.632812 249.535156 C 119.328125 249.628906 119.015625 249.679688 118.707031 249.679688 C 117.390625 249.679688 116.164062 248.828125 115.75 247.5 C 115.242188 245.867188 116.152344 244.125 117.789062 243.617188 L 127.601562 240.550781 C 129.234375 240.039062 130.96875 240.949219 131.484375 242.582031 Z M 116.558594 235.257812 C 114.847656 235.257812 113.457031 233.867188 113.457031 232.15625 C 113.457031 230.445312 114.847656 229.054688 116.558594 229.054688 L 126.988281 229.054688 C 128.699219 229.054688 130.089844 230.445312 130.089844 232.15625 C 130.089844 233.867188 128.699219 235.257812 126.988281 235.257812 Z M 240.296875 222.347656 C 239.789062 220.714844 240.699219 218.972656 242.335938 218.464844 L 252.148438 215.398438 C 253.78125 214.890625 255.523438 215.800781 256.03125 217.433594 C 256.539062 219.070312 255.628906 220.808594 253.992188 221.316406 L 244.179688 224.386719 C 243.875 224.480469 243.5625 224.53125 243.257812 224.53125 C 241.9375 224.523438 240.710938 223.675781 240.296875 222.347656 Z M 256.03125 247.496094 C 255.621094 248.824219 254.390625 249.671875 253.074219 249.671875 C 252.765625 249.671875 252.457031 249.625 252.148438 249.53125 L 242.335938 246.460938 C 240.699219 245.953125 239.789062 244.214844 240.296875 242.578125 C 240.804688 240.945312 242.546875 240.03125 244.179688 240.539062 L 253.992188 243.609375 C 255.632812 244.121094 256.542969 245.863281 256.03125 247.496094 Z M 258.316406 232.160156 C 258.316406 233.871094 256.929688 235.261719 255.214844 235.261719 L 244.789062 235.261719 C 243.078125 235.261719 241.6875 233.871094 241.6875 232.160156 C 241.6875 230.449219 243.078125 229.058594 244.789062 229.058594 L 255.214844 229.058594 C 256.933594 229.058594 258.316406 230.445312 258.316406 232.160156 Z M 258.316406 232.160156"/><g fill="#FF5757"><g><g><path d="M -9.652344 -39.796875 C -13.511719 -40.925781 -16.480469 -41.5 -18.644531 -41.5 C -19.433594 -41.449219 -20.238281 -41.375 -21.03125 -41.324219 C -21.835938 -41.25 -22.59375 -41.140625 -23.324219 -41.015625 C -23.691406 -40.898438 -24.015625 -40.789062 -24.3125 -40.664062 C -24.730469 -40.476562 -25.363281 -40.066406 -26.144531 -39.433594 C -26.734375 -38.820312 -27.347656 -38.113281 -27.988281 -37.3125 C -28.605469 -36.5 -29.070312 -35.691406 -29.359375 -34.878906 C -29.625 -34.152344 -29.632812 -33.332031 -29.417969 -32.464844 C -29.136719 -31.269531 -28.578125 -29.996094 -27.761719 -28.625 C -26.847656 -26.96875 -25.5 -24.992188 -23.703125 -22.714844 C -21.90625 -20.433594 -20.003906 -18.15625 -17.90625 -15.894531 C -15.828125 -13.609375 -13.714844 -11.480469 -11.59375 -9.527344 C -9.464844 -7.53125 -7.609375 -6.042969 -6.03125 -5.0625 C -5.230469 -4.53125 -4.332031 -4.039062 -3.320312 -3.617188 C -2.320312 -3.167969 -1.382812 -3.117188 -0.449219 -3.433594 C 0.613281 -3.734375 2.195312 -5.023438 4.289062 -7.300781 C 6.367188 -9.554688 6.734375 -11.402344 5.386719 -12.839844 C 5.027344 -13.222656 4.597656 -13.546875 4.113281 -13.796875 C 3.632812 -14.046875 3.183594 -14.34375 2.75 -14.667969 C -0.226562 -16.472656 -3.246094 -18.808594 -6.355469 -21.710938 C -9.460938 -24.570312 -11.515625 -26.730469 -12.527344 -28.128906 C -13.542969 -29.527344 -12.761719 -29.832031 -10.117188 -29.042969 C -7.472656 -28.253906 -4.394531 -27.25 -0.929688 -26.019531 C 2.539062 -24.789062 4.792969 -24.007812 5.890625 -23.707031 C 6.972656 -23.382812 8.261719 -24.398438 9.789062 -26.695312 C 11.320312 -28.988281 11.71875 -30.5625 11.003906 -31.433594 C 10.273438 -32.28125 8.65625 -33.96875 6.144531 -36.472656 C 3.632812 -38.976562 1.539062 -41.453125 -0.160156 -43.878906 C -1.832031 -46.292969 -1.855469 -47.28125 -0.175781 -46.882812 C 1.488281 -46.457031 4.257812 -45.371094 8.089844 -43.609375 C 11.925781 -41.84375 15.242188 -39.957031 18.070312 -37.929688 C 18.519531 -37.632812 18.953125 -37.308594 19.382812 -36.984375 C 19.800781 -36.632812 20.265625 -36.359375 20.757812 -36.175781 C 22.585938 -35.460938 24.117188 -36.460938 25.320312 -39.1875 C 26.527344 -41.914062 27.035156 -43.8125 26.898438 -44.910156 C 26.800781 -45.839844 26.351562 -46.679688 25.550781 -47.429688 C 24.753906 -48.175781 23.972656 -48.839844 23.171875 -49.375 C 21.660156 -50.453125 19.574219 -51.59375 16.953125 -52.796875 C 14.332031 -54.003906 11.574219 -55.160156 8.679688 -56.222656 C 5.785156 -57.285156 2.980469 -58.21875 0.203125 -59.023438 C -2.546875 -59.8125 -4.835938 -60.328125 -6.699219 -60.558594 C -8.277344 -60.785156 -9.667969 -60.808594 -10.847656 -60.660156 C -11.726562 -60.527344 -12.441406 -60.210938 -12.957031 -59.761719 C -13.597656 -59.179688 -14.148438 -58.464844 -14.621094 -57.589844 C -15.09375 -56.714844 -15.496094 -55.902344 -15.777344 -55.152344 C -16.058594 -54.1875 -16.175781 -53.472656 -16.152344 -53.023438 C -16.152344 -52.699219 -16.125 -52.359375 -16.058594 -52.027344 C -15.910156 -51.277344 -15.699219 -50.5625 -15.441406 -49.816406 C -15.160156 -49.050781 -14.902344 -48.300781 -14.609375 -47.601562 C -13.796875 -45.691406 -12.148438 -43.078125 -9.652344 -39.796875 Z M -9.652344 -39.796875" transform="translate(35.418 189.412)"/></g></g></g><g fill="#FF5757"><g><g><path d="M -6.144531 -6.609375 C -5.964844 -6.367188 -5.695312 -6.085938 -5.304688 -5.753906 C -4.996094 -5.425781 -4.6875 -5.222656 -4.414062 -5.109375 C -4.289062 -4.976562 -4.0625 -4.820312 -3.730469 -4.640625 C -3.441406 -4.417969 -3.109375 -4.195312 -2.734375 -3.972656 C -2.316406 -3.703125 -1.964844 -3.5 -1.691406 -3.386719 C -1.359375 -3.207031 -1.105469 -3.113281 -0.9375 -3.148438 C -0.320312 -3.148438 -0.0429688 -3.160156 -0.0664062 -3.183594 C 0.316406 -3.214844 0.636719 -3.265625 0.851562 -3.300781 C 1.277344 -3.375 1.578125 -3.449219 1.726562 -3.507812 C 1.898438 -3.542969 2.15625 -3.664062 2.5 -3.820312 C 3.453125 -4.382812 4.558594 -5.132812 5.777344 -6.066406 C 7.40625 -7.222656 8.886719 -8.40625 10.179688 -9.570312 C 10.898438 -10.207031 11.578125 -10.839844 12.253906 -11.476562 C 12.933594 -12.109375 13.507812 -12.769531 13.996094 -13.390625 C 15.054688 -14.714844 15.578125 -15.777344 15.539062 -16.566406 C 15.511719 -16.988281 15.300781 -17.65625 14.882812 -18.539062 C 14.488281 -19.398438 13.964844 -20.222656 13.332031 -20.984375 C 12.636719 -21.816406 11.957031 -22.410156 11.289062 -22.769531 C 10.472656 -23.117188 9.730469 -23.121094 9.082031 -22.757812 C 8.996094 -22.675781 8.886719 -22.574219 8.757812 -22.492188 C 8.628906 -22.414062 8.496094 -22.332031 8.34375 -22.230469 C 7.910156 -21.90625 7.582031 -21.640625 7.28125 -21.4375 C 7.105469 -21.273438 6.90625 -21.089844 6.691406 -20.929688 C 6.472656 -20.765625 6.253906 -20.601562 6.039062 -20.441406 C 5.710938 -20.175781 5.253906 -19.789062 4.597656 -19.257812 C 3.238281 -20.40625 1.777344 -21.789062 0.214844 -23.367188 C -1.242188 -24.792969 -2.65625 -26.304688 -4.066406 -27.941406 C -5.660156 -29.777344 -6.984375 -31.410156 -8.085938 -32.847656 C -9.246094 -34.265625 -10.464844 -35.957031 -11.777344 -37.890625 C -10.863281 -38.664062 -10.25 -39.238281 -9.878906 -39.585938 C -9.199219 -40.179688 -8.5625 -40.859375 -7.96875 -41.582031 C -7.371094 -42.304688 -7.492188 -43.179688 -8.347656 -44.183594 C -8.636719 -44.488281 -8.921875 -44.796875 -9.191406 -45.039062 C -9.480469 -45.257812 -9.769531 -45.480469 -10.078125 -45.722656 C -10.183594 -45.75 -10.414062 -45.90625 -10.742188 -46.171875 C -11.324219 -46.527344 -11.679688 -46.730469 -11.761719 -46.820312 C -12.09375 -47 -12.40625 -47.199219 -12.78125 -47.425781 C -13.074219 -47.5625 -13.328125 -47.613281 -13.535156 -47.660156 C -13.984375 -47.613281 -14.261719 -47.601562 -14.429688 -47.605469 L -15.324219 -47.507812 C -15.6875 -47.414062 -15.988281 -47.339844 -16.199219 -47.304688 C -16.566406 -47.167969 -16.824219 -47.046875 -16.996094 -46.96875 C -17.863281 -46.402344 -18.949219 -45.675781 -20.292969 -44.746094 C -21.707031 -43.667969 -23.167969 -42.503906 -24.652344 -41.238281 C -26.179688 -39.890625 -27.453125 -38.617188 -28.46875 -37.417969 C -29.527344 -36.097656 -30.050781 -35.03125 -30.015625 -34.246094 C -29.988281 -33.695312 -29.757812 -33.050781 -29.355469 -32.273438 C -28.960938 -31.410156 -28.457031 -30.566406 -27.828125 -29.804688 C -27.089844 -28.933594 -26.410156 -28.335938 -25.761719 -28.039062 C -24.96875 -27.632812 -24.25 -27.609375 -23.597656 -28.054688 C -23.320312 -28.191406 -23.144531 -28.3125 -23.101562 -28.355469 C -22.839844 -28.515625 -22.625 -28.679688 -22.492188 -28.800781 C -22.167969 -29.023438 -21.929688 -29.207031 -21.753906 -29.371094 C -21.578125 -29.492188 -21.296875 -29.71875 -20.925781 -30.023438 C -20.039062 -28.636719 -18.902344 -26.988281 -17.480469 -25.117188 C -16.222656 -23.421875 -14.855469 -21.699219 -13.386719 -19.953125 C -11.714844 -17.949219 -10.261719 -16.308594 -9.074219 -15.039062 C -7.597656 -13.464844 -6.222656 -12.082031 -4.945312 -10.894531 L -5.492188 -10.382812 L -5.972656 -9.933594 C -7.113281 -8.867188 -7.167969 -7.746094 -6.144531 -6.609375 Z M -6.144531 -6.609375" transform="translate(65.76 146.5)"/></g></g></g><g fill="#FF5757"><g><g><path d="M 7.371094 -57 C 5.199219 -56.246094 3.109375 -55.296875 1.109375 -54.085938 C -0.890625 -52.875 -2.773438 -51.527344 -4.484375 -50.070312 C -6.558594 -48.285156 -8.515625 -46.191406 -10.417969 -43.777344 C -12.304688 -41.335938 -13.632812 -38.605469 -14.445312 -35.554688 C -16.078125 -29.449219 -14.601562 -24 -10.050781 -19.148438 C -7.144531 -15.96875 -3.695312 -13.570312 0.28125 -11.980469 C 2.4375 -11.082031 4.621094 -10.542969 6.828125 -10.371094 C 9.035156 -10.203125 11.203125 -10.324219 13.300781 -10.679688 C 15.957031 -11.097656 18.515625 -11.910156 20.972656 -13.117188 C 22.808594 -14.019531 24.554688 -15.078125 26.230469 -16.300781 C 27.882812 -17.511719 29.324219 -19.121094 30.507812 -21.101562 C 30.9375 -21.78125 31.332031 -22.578125 31.71875 -23.445312 C 32.238281 -24.671875 32.742188 -26.273438 33.210938 -28.273438 C 33.695312 -30.25 32.960938 -31.523438 31.003906 -32.089844 C 27.625 -32.988281 25.28125 -32.164062 23.992188 -29.667969 C 22.691406 -27.125 21.148438 -25.214844 19.386719 -23.898438 C 17.078125 -22.152344 14.410156 -21.0625 11.460938 -20.609375 C 8.484375 -20.136719 5.941406 -20.808594 3.808594 -22.597656 C 0.882812 -25 -0.59375 -27.433594 -0.660156 -29.917969 C -0.710938 -32.375 -0.046875 -34.636719 1.375 -36.6875 C 2.796875 -38.738281 4.59375 -40.460938 6.753906 -41.871094 C 8.914062 -43.285156 10.765625 -44.160156 12.296875 -44.527344 C 13.035156 -44.695312 13.789062 -44.835938 14.554688 -45.019531 C 15.335938 -45.175781 16.066406 -45.476562 16.734375 -45.882812 C 17.449219 -46.316406 17.800781 -47.472656 17.757812 -49.339844 C 17.722656 -50.617188 17.460938 -51.859375 16.996094 -53.085938 C 16.523438 -54.273438 15.960938 -55.4375 15.292969 -56.539062 C 14.734375 -57.460938 13.671875 -57.941406 12.125 -57.949219 C 10.808594 -57.925781 9.246094 -57.609375 7.371094 -57 Z M 7.371094 -57" transform="translate(82.422 129.198)"/></g></g></g><g fill="#FF5757"><g><g><path d="M 11.488281 -18.914062 C 13.230469 -19.472656 15.25 -20.269531 17.523438 -21.261719 C 19.804688 -22.226562 21.726562 -23.246094 23.347656 -24.332031 C 24.9375 -20.734375 26.414062 -17.976562 27.757812 -16.113281 C 28.675781 -14.757812 29.628906 -13.71875 30.585938 -12.996094 C 31.253906 -12.40625 31.988281 -12.117188 32.796875 -12.128906 C 33.6875 -12.074219 34.671875 -12.230469 35.71875 -12.59375 C 36.769531 -12.957031 37.6875 -13.34375 38.503906 -13.765625 C 39.648438 -14.339844 40.457031 -15.007812 40.953125 -15.773438 C 41.421875 -16.53125 41.261719 -17.640625 40.488281 -19.039062 C 37.722656 -23.800781 35.242188 -29.296875 33.042969 -35.464844 C 30.839844 -41.632812 29.539062 -47.375 29.160156 -52.628906 C 29.097656 -53.171875 29.0625 -53.722656 29.015625 -54.332031 C 28.972656 -54.914062 28.875 -55.476562 28.714844 -56.027344 C 28.359375 -56.953125 27.628906 -57.429688 26.550781 -57.496094 C 25.480469 -57.53125 24.320312 -57.324219 23.070312 -56.90625 C 21.816406 -56.484375 20.636719 -55.925781 19.515625 -55.265625 C 18.40625 -54.570312 17.660156 -54.015625 17.289062 -53.566406 C 16.578125 -52.675781 16.183594 -51.660156 16.113281 -50.484375 C 16.042969 -49.3125 16.074219 -48.226562 16.179688 -47.199219 C 16.355469 -45.503906 16.734375 -43.519531 17.328125 -41.226562 C 17.929688 -38.90625 18.644531 -36.519531 19.503906 -34.054688 C 17.882812 -33.402344 15.863281 -32.511719 13.480469 -31.457031 C 11.109375 -30.375 8.84375 -29.351562 6.753906 -28.378906 C 4.425781 -33.792969 2.652344 -39.117188 1.425781 -44.378906 C 1.046875 -45.921875 0.449219 -46.8125 -0.433594 -47.058594 C -1.304688 -47.277344 -2.382812 -47.21875 -3.628906 -46.894531 C -4.492188 -46.644531 -5.449219 -46.277344 -6.4375 -45.808594 C -7.453125 -45.332031 -8.273438 -44.816406 -8.90625 -44.199219 C -9.484375 -43.597656 -9.835938 -42.871094 -9.949219 -42.058594 C -10.152344 -40.816406 -10.128906 -39.421875 -9.863281 -37.84375 C -9.632812 -35.945312 -9.050781 -33.585938 -8.148438 -30.757812 C -7.246094 -27.925781 -6.171875 -25.054688 -4.953125 -22.097656 C -3.730469 -19.140625 -2.449219 -16.296875 -1.066406 -13.636719 C 0.328125 -10.945312 1.632812 -8.792969 2.890625 -7.21875 C 3.511719 -6.367188 4.242188 -5.550781 5.101562 -4.734375 C 5.957031 -3.917969 6.960938 -3.457031 8.058594 -3.335938 C 8.652344 -3.222656 9.59375 -3.308594 10.886719 -3.582031 C 12.152344 -3.851562 13.375 -4.265625 14.59375 -4.800781 C 15.78125 -5.328125 16.75 -5.980469 17.523438 -6.761719 C 18.296875 -7.542969 18.496094 -8.378906 18.101562 -9.328125 C 17.863281 -9.820312 17.542969 -10.292969 17.164062 -10.742188 C 16.785156 -11.195312 16.40625 -11.648438 16.09375 -12.089844 C 14.550781 -13.988281 13 -16.257812 11.488281 -18.914062 Z M 11.488281 -18.914062" transform="translate(119.572 106.24)"/></g></g></g><g fill="#FF5757"><g><g><path d="M -0.589844 -9.003906 C -0.601562 -8.703125 -0.574219 -8.316406 -0.480469 -7.8125 C -0.449219 -7.363281 -0.332031 -7.007812 -0.195312 -6.75 C -0.183594 -6.570312 -0.105469 -6.304688 0.0390625 -5.953125 C 0.125 -5.597656 0.242188 -5.214844 0.390625 -4.804688 C 0.542969 -4.335938 0.6875 -3.953125 0.828125 -3.695312 C 0.972656 -3.34375 1.109375 -3.113281 1.261719 -3.03125 C 1.742188 -2.644531 1.960938 -2.480469 1.960938 -2.507812 C 2.277344 -2.289062 2.558594 -2.128906 2.746094 -2.023438 C 3.121094 -1.808594 3.402344 -1.675781 3.554688 -1.628906 C 3.710938 -1.546875 3.984375 -1.476562 4.351562 -1.382812 C 5.445312 -1.21875 6.777344 -1.097656 8.3125 -1.054688 C 10.304688 -0.921875 12.199219 -0.902344 13.9375 -0.992188 C 14.894531 -1.027344 15.824219 -1.09375 16.75 -1.15625 C 17.675781 -1.21875 18.539062 -1.371094 19.308594 -1.542969 C 20.964844 -1.898438 22.042969 -2.394531 22.511719 -3.027344 C 22.757812 -3.375 23.011719 -4.023438 23.25 -4.972656 C 23.484375 -5.890625 23.597656 -6.859375 23.589844 -7.851562 C 23.574219 -8.929688 23.425781 -9.820312 23.136719 -10.523438 C 22.722656 -11.304688 22.148438 -11.777344 21.417969 -11.90625 C 21.296875 -11.898438 21.148438 -11.886719 20.996094 -11.910156 C 20.84375 -11.929688 20.691406 -11.949219 20.511719 -11.964844 C 19.96875 -11.988281 19.546875 -11.988281 19.183594 -12.023438 C 18.945312 -12.007812 18.675781 -11.988281 18.40625 -12 C 18.132812 -12.011719 17.863281 -12.023438 17.589844 -12.035156 C 17.171875 -12.035156 16.570312 -12.023438 15.730469 -12.023438 C 15.398438 -13.777344 15.140625 -15.769531 14.925781 -17.980469 C 14.695312 -20.007812 14.554688 -22.070312 14.496094 -24.230469 C 14.417969 -26.660156 14.421875 -28.765625 14.476562 -30.570312 C 14.472656 -32.40625 14.597656 -34.488281 14.796875 -36.816406 C 16 -36.835938 16.835938 -36.894531 17.34375 -36.929688 C 18.246094 -36.960938 19.167969 -37.085938 20.085938 -37.269531 C 21.003906 -37.453125 21.464844 -38.207031 21.433594 -39.527344 C 21.40625 -39.945312 21.375 -40.363281 21.320312 -40.722656 C 21.234375 -41.078125 21.152344 -41.429688 21.066406 -41.816406 C 21 -41.902344 20.921875 -42.167969 20.832031 -42.582031 C 20.605469 -43.226562 20.460938 -43.605469 20.453125 -43.726562 C 20.308594 -44.078125 20.191406 -44.429688 20.042969 -44.839844 C 19.90625 -45.132812 19.742188 -45.332031 19.609375 -45.5 C 19.230469 -45.746094 19.007812 -45.910156 18.882812 -46.023438 L 18.125 -46.511719 C 17.785156 -46.667969 17.503906 -46.800781 17.316406 -46.90625 C 16.949219 -47.03125 16.671875 -47.101562 16.488281 -47.148438 C 15.460938 -47.257812 14.160156 -47.378906 12.527344 -47.507812 C 10.75 -47.566406 8.886719 -47.585938 6.933594 -47.542969 C 4.898438 -47.460938 3.105469 -47.277344 1.5625 -46.992188 C -0.09375 -46.636719 -1.171875 -46.140625 -1.640625 -45.507812 C -1.96875 -45.0625 -2.195312 -44.417969 -2.375 -43.5625 C -2.613281 -42.644531 -2.757812 -41.671875 -2.75 -40.683594 C -2.730469 -39.542969 -2.578125 -38.652344 -2.265625 -38.011719 C -1.90625 -37.195312 -1.363281 -36.722656 -0.578125 -36.65625 C -0.273438 -36.585938 -0.0625 -36.570312 0 -36.574219 C 0.300781 -36.535156 0.574219 -36.523438 0.753906 -36.535156 C 1.144531 -36.503906 1.445312 -36.496094 1.6875 -36.511719 C 1.898438 -36.496094 2.257812 -36.488281 2.738281 -36.492188 C 2.550781 -34.859375 2.390625 -32.863281 2.3125 -30.511719 C 2.214844 -28.402344 2.1875 -26.207031 2.226562 -23.925781 C 2.253906 -21.3125 2.347656 -19.125 2.464844 -17.390625 C 2.613281 -15.238281 2.808594 -13.296875 3.046875 -11.570312 L 2.300781 -11.519531 L 1.640625 -11.472656 C 0.0859375 -11.367188 -0.667969 -10.53125 -0.589844 -9.003906 Z M -0.589844 -9.003906" transform="translate(163.394 94.701)"/></g></g></g><g fill="#FF5757"><g><g><path d="M 22.921875 -40.664062 C 20.316406 -40.996094 17.96875 -41.238281 15.886719 -41.320312 C 15.757812 -41.289062 15.625 -41.261719 15.503906 -41.257812 C 15.378906 -41.257812 15.253906 -41.257812 15.132812 -41.257812 C 14.113281 -41.140625 13.300781 -40.847656 12.734375 -40.304688 C 12.167969 -39.765625 11.632812 -39.097656 11.164062 -38.316406 C 11.113281 -38.238281 11.011719 -38.078125 10.894531 -37.859375 C 10.785156 -37.667969 10.714844 -37.5 10.65625 -37.390625 C 10.605469 -37.3125 10.554688 -37.230469 10.503906 -37.152344 C 10.453125 -37.070312 10.4375 -37.011719 10.425781 -36.953125 C 10.367188 -36.847656 10.316406 -36.765625 10.300781 -36.707031 C 10.25 -36.628906 10.230469 -36.539062 10.214844 -36.480469 C 9.824219 -35.652344 9.425781 -34.667969 9.023438 -33.535156 C 7.683594 -29.601562 6.617188 -25.417969 5.832031 -20.980469 C 5.042969 -16.542969 4.632812 -12.257812 4.601562 -8.128906 C 4.554688 -7.183594 4.5625 -6.222656 4.632812 -5.25 C 4.699219 -4.273438 4.839844 -3.34375 5.074219 -2.421875 C 5.457031 -0.722656 6.183594 0.476562 7.214844 1.164062 C 8.25 1.851562 9.632812 2.378906 11.324219 2.796875 L 12.050781 2.976562 L 12.75 3.148438 C 13.359375 3.300781 13.839844 3.355469 14.183594 3.347656 C 16.203125 3.539062 18.253906 3.738281 20.363281 3.949219 C 22.472656 4.160156 24.539062 4.300781 26.582031 4.402344 C 27.914062 4.515625 29.390625 4.542969 31.0625 4.523438 C 32.613281 4.503906 33.984375 4.441406 35.132812 4.292969 C 38.246094 3.949219 41.035156 3.03125 43.570312 1.527344 C 46.09375 0.0507812 47.679688 -2.367188 48.347656 -5.691406 C 48.390625 -6.113281 48.433594 -6.535156 48.476562 -6.957031 C 48.484375 -8.5 48.140625 -9.976562 47.445312 -11.414062 C 46.71875 -12.859375 45.871094 -14.179688 44.929688 -15.367188 C 44.667969 -15.679688 44.472656 -15.882812 44.355469 -16.035156 C 43.378906 -17.082031 42.269531 -18.09375 40.964844 -19.066406 C 40.828125 -19.132812 40.6875 -19.195312 40.558594 -19.289062 C 40.425781 -19.382812 40.296875 -19.480469 40.191406 -19.566406 C 40.027344 -19.636719 39.886719 -19.703125 39.757812 -19.796875 C 39.625 -19.890625 39.492188 -19.984375 39.390625 -20.074219 C 39.695312 -20.183594 39.9375 -20.277344 40.082031 -20.367188 C 40.359375 -20.480469 40.574219 -20.613281 40.722656 -20.703125 C 42.355469 -21.5625 43.675781 -22.660156 44.71875 -24.007812 C 44.8125 -24.136719 44.941406 -24.292969 45.042969 -24.453125 C 46.289062 -26.242188 46.566406 -27.996094 45.917969 -29.734375 C 45.265625 -31.46875 44.242188 -33.082031 42.839844 -34.539062 C 42.441406 -34.914062 41.863281 -35.335938 41.121094 -35.828125 C 40.464844 -36.175781 39.671875 -36.585938 38.695312 -37.011719 C 37.851562 -37.34375 36.855469 -37.683594 35.710938 -38.058594 C 34.648438 -38.382812 33.578125 -38.679688 32.472656 -38.953125 C 31.222656 -39.261719 30.109375 -39.503906 29.132812 -39.683594 C 27.125 -40.054688 25.074219 -40.378906 22.921875 -40.664062 Z M 20.980469 -27.675781 L 21.050781 -27.96875 L 21.132812 -28.289062 C 21.304688 -28.988281 21.476562 -29.6875 21.679688 -30.378906 C 21.851562 -31.074219 22.058594 -31.796875 22.289062 -32.480469 C 22.289062 -32.480469 22.332031 -32.53125 22.347656 -32.589844 C 22.347656 -32.589844 22.390625 -32.640625 22.40625 -32.699219 C 22.441406 -32.71875 22.476562 -32.742188 22.484375 -32.773438 L 22.492188 -32.800781 C 22.492188 -32.800781 22.527344 -32.824219 22.535156 -32.851562 L 22.574219 -32.875 C 22.574219 -32.875 22.578125 -32.902344 22.617188 -32.925781 L 22.652344 -32.945312 L 22.675781 -33.035156 L 22.679688 -33.0625 L 22.753906 -33.105469 C 23.152344 -33.347656 23.589844 -33.488281 24.023438 -33.503906 C 24.621094 -33.542969 25.109375 -33.511719 25.472656 -33.484375 C 25.472656 -33.484375 25.5 -33.476562 25.53125 -33.472656 C 25.53125 -33.472656 25.566406 -33.492188 25.625 -33.480469 L 25.683594 -33.464844 L 25.800781 -33.4375 L 25.859375 -33.421875 L 25.945312 -33.398438 C 25.972656 -33.390625 26.039062 -33.40625 26.097656 -33.394531 C 27.785156 -32.976562 28.871094 -32.121094 29.398438 -30.878906 C 29.390625 -30.851562 29.382812 -30.820312 29.414062 -30.8125 C 29.40625 -30.785156 29.4375 -30.777344 29.464844 -30.769531 C 29.457031 -30.742188 29.449219 -30.710938 29.5 -30.667969 C 29.867188 -29.402344 29.558594 -28.277344 28.601562 -27.277344 C 27.644531 -26.277344 26.535156 -25.65625 25.246094 -25.449219 C 25.21875 -25.457031 25.152344 -25.441406 25.03125 -25.441406 C 24.964844 -25.425781 24.929688 -25.40625 24.898438 -25.414062 C 24.863281 -25.390625 24.832031 -25.398438 24.832031 -25.398438 C 24.773438 -25.410156 24.679688 -25.40625 24.617188 -25.390625 C 23.917969 -25.316406 23.101562 -25.394531 22.222656 -25.578125 C 21.335938 -25.738281 20.902344 -26.246094 20.945312 -27.039062 L 20.9375 -27.253906 C 20.9375 -27.253906 20.914062 -27.292969 20.929688 -27.351562 C 20.9375 -27.378906 20.945312 -27.40625 20.957031 -27.464844 C 20.957031 -27.464844 20.9375 -27.503906 20.953125 -27.5625 C 20.957031 -27.589844 20.964844 -27.617188 20.980469 -27.675781 Z M 18.617188 -2.472656 C 18.601562 -2.664062 18.585938 -2.851562 18.570312 -3.042969 C 18.554688 -3.230469 18.546875 -3.449219 18.53125 -3.636719 C 18.464844 -3.992188 18.441406 -4.402344 18.425781 -4.835938 C 18.3125 -6.871094 18.335938 -8.96875 18.476562 -11.15625 C 18.488281 -11.707031 18.507812 -12.167969 18.550781 -12.464844 C 18.542969 -12.683594 18.710938 -12.859375 18.992188 -13.003906 C 19.210938 -13.136719 19.546875 -13.238281 20.0625 -13.328125 C 20.496094 -13.34375 21 -13.375 21.566406 -13.417969 C 22.679688 -13.421875 23.886719 -13.308594 25.195312 -13.109375 C 25.792969 -13.023438 26.410156 -12.902344 27.023438 -12.75 C 28.621094 -12.355469 29.925781 -11.632812 30.976562 -10.632812 C 32.027344 -9.632812 32.574219 -8.351562 32.636719 -6.855469 C 32.625 -6.796875 32.609375 -6.738281 32.625 -6.671875 C 32.609375 -6.613281 32.632812 -6.578125 32.652344 -6.542969 C 32.636719 -6.484375 32.609375 -6.367188 32.632812 -6.207031 C 32.421875 -4.097656 31.261719 -2.65625 29.167969 -1.9375 C 27.917969 -1.503906 26.574219 -1.3125 25.132812 -1.359375 C 23.695312 -1.40625 22.347656 -1.582031 21.082031 -1.835938 C 20.339844 -1.957031 19.847656 -2.078125 19.589844 -2.171875 C 19.242188 -2.257812 18.890625 -2.34375 18.617188 -2.472656 Z M 18.617188 -2.472656" transform="translate(203.441 92.467)"/></g></g></g><g fill="#FF5757"><g><g><path d="M 7.386719 0.605469 C 7.464844 0.714844 7.570312 0.839844 7.6875 0.933594 C 7.792969 1.058594 7.910156 1.15625 8.054688 1.265625 C 10.359375 3.511719 13.316406 5.800781 16.988281 8.09375 C 20.65625 10.390625 24.15625 11.980469 27.5 12.84375 C 28.328125 13.082031 29.234375 13.226562 30.253906 13.292969 C 31.257812 13.386719 32.171875 13.195312 33.003906 12.71875 C 33.902344 12.179688 35.09375 10.707031 36.589844 8.277344 C 38.074219 5.875 38.0625 4.238281 36.542969 3.394531 C 36.121094 3.167969 35.628906 3.007812 35.132812 2.914062 C 34.640625 2.820312 34.160156 2.703125 33.734375 2.609375 C 30.585938 1.886719 27.765625 0.929688 25.316406 -0.273438 C 22.851562 -1.449219 20.433594 -2.90625 18.023438 -4.632812 C 19.910156 -9.066406 22.261719 -13.484375 25.03125 -17.917969 C 27.789062 -22.328125 30.6875 -26.050781 33.730469 -29.082031 C 34.0625 -29.449219 34.472656 -29.84375 34.898438 -30.261719 C 35.3125 -30.652344 35.6875 -31.097656 35.964844 -31.5625 C 36.417969 -32.40625 36.332031 -33.269531 35.683594 -34.089844 C 35.03125 -34.910156 34.152344 -35.683594 33.070312 -36.328125 C 31.960938 -36.988281 30.808594 -37.5 29.597656 -37.90625 C 28.375 -38.289062 27.492188 -38.484375 26.917969 -38.484375 C 25.816406 -38.460938 24.773438 -38.097656 23.871094 -37.425781 C 22.953125 -36.722656 22.144531 -36.035156 21.484375 -35.300781 C 20.078125 -33.875 18.566406 -31.925781 16.921875 -29.476562 C 15.273438 -27.023438 13.691406 -24.433594 12.199219 -21.695312 C 10.679688 -18.972656 9.335938 -16.257812 8.144531 -13.632812 C 6.949219 -11.007812 6.140625 -8.789062 5.734375 -7 C 5.289062 -5.402344 5.082031 -4.054688 5.160156 -2.925781 C 5.175781 -2.066406 5.441406 -1.347656 5.933594 -0.746094 C 6.234375 -0.347656 6.703125 0.105469 7.386719 0.605469 Z M 7.386719 0.605469" transform="translate(247.754 103.737)"/></g></g></g><g fill="#FF5757"><g><g><path d="M 19.535156 -18.363281 C 16.253906 -17.078125 13.398438 -14.96875 10.96875 -12.03125 C 9.300781 -9.984375 8.140625 -7.925781 7.554688 -5.832031 C 6.910156 -3.671875 6.839844 -1.484375 7.300781 0.699219 C 7.761719 2.882812 8.574219 4.941406 9.660156 6.875 C 11.074219 9.429688 12.957031 11.597656 15.328125 13.398438 C 17.71875 15.136719 20.332031 16.304688 23.207031 16.871094 C 26.0625 17.453125 28.980469 17.613281 31.894531 17.324219 C 33.835938 17.128906 35.855469 16.761719 37.992188 16.222656 C 40.128906 15.679688 42.078125 14.890625 43.851562 13.902344 C 46.730469 12.210938 49.378906 9.792969 51.792969 6.644531 C 52.464844 5.714844 53.066406 4.726562 53.667969 3.695312 C 54.25 2.6875 54.699219 1.601562 54.976562 0.480469 C 55.390625 -1.238281 55.394531 -3.128906 55.066406 -5.191406 C 54.699219 -7.253906 54.070312 -9.023438 53.136719 -10.5 C 51.207031 -13.558594 48.503906 -15.976562 45.007812 -17.738281 C 40.925781 -19.78125 36.578125 -20.816406 31.992188 -20.816406 C 31.269531 -20.820312 30.484375 -20.796875 29.722656 -20.753906 C 27.921875 -20.675781 26.152344 -20.410156 24.480469 -19.976562 C 22.804688 -19.542969 21.15625 -19.007812 19.535156 -18.363281 Z M 24.011719 -5.789062 C 25.332031 -7.261719 26.675781 -7.953125 28 -7.8125 C 29.320312 -7.675781 30.480469 -7.082031 31.410156 -6.007812 C 32.339844 -4.933594 32.96875 -3.566406 33.292969 -1.90625 C 33.597656 -0.265625 33.449219 1.289062 32.789062 2.792969 C 32.183594 4.101562 31.347656 5.121094 30.285156 5.859375 C 29.21875 6.597656 27.914062 6.757812 26.359375 6.332031 C 23.949219 5.703125 22.613281 3.863281 22.40625 0.863281 C 22.175781 -2.121094 22.710938 -4.335938 24.011719 -5.789062 Z M 24.011719 -5.789062" transform="translate(279.988 120.11)"/></g></g></g><g fill="#FF5757"><g><g><path d="M 57.183594 5.796875 C 56.367188 3.648438 55.363281 1.585938 54.097656 -0.378906 C 52.832031 -2.347656 51.429688 -4.191406 49.925781 -5.863281 C 48.085938 -7.886719 45.9375 -9.785156 43.472656 -11.621094 C 40.984375 -13.441406 38.214844 -14.691406 35.144531 -15.421875 C 28.996094 -16.882812 23.589844 -15.257812 18.863281 -10.574219 C 15.765625 -7.582031 13.464844 -4.066406 11.984375 -0.0507812 C 11.144531 2.132812 10.667969 4.328125 10.558594 6.539062 C 10.445312 8.75 10.628906 10.914062 11.042969 13 C 11.535156 15.644531 12.417969 18.179688 13.691406 20.601562 C 14.644531 22.414062 15.746094 24.128906 17.019531 25.769531 C 18.273438 27.386719 19.921875 28.785156 21.933594 29.917969 C 22.625 30.328125 23.433594 30.699219 24.308594 31.0625 C 25.550781 31.546875 27.589844 31.945312 30.511719 32.273438 C 33.410156 32.621094 34.875 31.855469 34.890625 29.992188 C 34.851562 29.265625 34.757812 27.792969 34.585938 25.585938 C 34.398438 23.355469 34.082031 21.097656 33.648438 18.808594 C 33.210938 16.523438 32.601562 14.527344 31.878906 12.851562 C 31.117188 11.167969 30.152344 10.503906 29.035156 10.867188 C 27.597656 11.296875 26.414062 11.949219 25.433594 12.867188 C 25.039062 13.191406 24.78125 13.570312 24.640625 14.015625 C 24.402344 14.527344 24.292969 15.132812 24.296875 15.808594 C 24.273438 16.324219 24.324219 17.289062 24.425781 18.722656 C 22.613281 16.464844 21.453125 13.824219 20.917969 10.890625 C 20.363281 7.925781 20.964844 5.367188 22.695312 3.183594 C 25.011719 0.191406 27.40625 -1.347656 29.886719 -1.484375 C 32.34375 -1.601562 34.621094 -1 36.710938 0.363281 C 38.800781 1.726562 40.570312 3.476562 42.042969 5.597656 C 43.511719 7.714844 44.441406 9.542969 44.847656 11.0625 C 45.035156 11.800781 45.199219 12.550781 45.402344 13.308594 C 45.582031 14.085938 45.902344 14.808594 46.324219 15.460938 C 46.777344 16.167969 47.945312 16.488281 49.8125 16.390625 C 51.085938 16.320312 52.320312 16.023438 53.535156 15.527344 C 54.707031 15.023438 55.855469 14.425781 56.9375 13.726562 C 57.847656 13.144531 58.296875 12.070312 58.261719 10.523438 C 58.199219 9.207031 57.84375 7.65625 57.183594 5.796875 Z M 57.183594 5.796875" transform="translate(312.39 148.342)"/></g></g></g></svg>